<svg width="17" height="20" fill="none" xmlns="http://www.w3.org/2000/svg"><path d="M11.36 2.471A2.9 2.9 0 008.5 0c-.92 0-1.792.442-2.335 1.183a.338.338 0 00.074.474.34.34 0 00.475-.074A2.222 2.222 0 018.5.678c1.093 0 2.033.812 2.187 1.889a.34.34 0 00.674-.096zm4.911 3.795l-1.02-1.695a.34.34 0 00-.291-.164h-.978a.34.34 0 100 .678h.785L15.38 6.1H1.62l.612-1.016h.36a.34.34 0 100-.678H2.04a.34.34 0 00-.292.164L.728 6.266a.338.338 0 00.292.514h14.96a.34.34 0 00.291-.514z" fill="currentColor"/><path d="M14.576 3.14a.34.34 0 00-.211-.15L9.73 1.907a.342.342 0 00-.408.253l-.35 1.49a.34.34 0 00.662.154l.272-1.16 3.973.927-.624 2.661a.339.339 0 00.331.416.34.34 0 00.33-.261l.702-2.992a.337.337 0 00-.042-.255zm-5.896.802L8.37 1.33a.338.338 0 00-.378-.297l-5.686.67a.34.34 0 00-.298.376l.516 4.357a.34.34 0 00.676-.08l-.477-4.02 5.012-.59.27 2.275a.34.34 0 00.675-.08z" fill="currentColor"/><path d="M11.368 6.312l-.674-2.798a.34.34 0 00-.41-.25L4.806 4.577a.339.339 0 00-.25.409l.337 1.398a.34.34 0 00.66-.158l-.257-1.07 4.816-1.154.595 2.469a.34.34 0 00.661-.16z" fill="currentColor"/><path d="M16.32 6.423a.34.34 0 00-.34-.321H1.02a.34.34 0 00-.34.321L0 19.643A.338.338 0 00.34 20h16.32a.342.342 0 00.34-.356l-.68-13.22zM.698 19.322L1.343 6.78h14.314l.645 12.542H.698z" fill="currentColor"/><path d="M11.05 7.458a1.02 1.02 0 00-1.02 1.017 1.02 1.02 0 002.04 0 1.02 1.02 0 00-1.02-1.017zm0 1.356a.34.34 0 110-.68.34.34 0 010 .68zm-5.1-1.356a1.02 1.02 0 00-1.02 1.017 1.02 1.02 0 002.04 0 1.02 1.02 0 00-1.02-1.017zm0 1.356a.34.34 0 01-.34-.34.34.34 0 01.68 0 .34.34 0 01-.34.34z" fill="currentColor"/><path d="M11.05 8.475h-.026a.34.34 0 00-.314.47v1.733A2.21 2.21 0 018.5 12.88a2.21 2.21 0 01-2.21-2.203V8.814a.34.34 0 00-.68 0v1.864a2.889 2.889 0 002.89 2.881 2.889 2.889 0 002.89-2.881V8.814a.34.34 0 00-.34-.34z" fill="currentColor"/></svg>