<svg version="1.0" xmlns="http://www.w3.org/2000/svg" width="682.667" height="682.667" viewBox="0 0 512 512"><g fill="currentColor"><path d="M46 234.7c0 179-.2 170.6 5.7 181.6 4.3 7.8 12.2 15.1 21 19.4l7.8 3.8h351.1l7.8-3.8c8.8-4.4 16.6-11.7 20.9-19.4 5.9-11 5.7-2.6 5.7-181.6V71H46v163.7zm410-55.5c0 94.8 0 97.2-1.9 95.3-1-1.1-11.4-13.2-23.1-26.9l-21.3-24.8-38.7 38.7c-21.3 21.3-39.2 38.5-39.6 38.2-.5-.3-29-35-63.4-77l-62.5-76.6-74 74C90.8 260.7 57.2 294 56.7 294c-.4 0-.7-47.7-.7-106V82h400v97.2zM314 295c59.5 72.9 108.7 133.1 109.3 133.8.8 1-32.4 1.2-169.4 1l-170.4-.3-6.7-3.3c-8.1-4-14.8-11-18-19-2.3-5.6-2.3-6.3-2.6-51.6l-.3-46 74.3-74.3c40.8-40.8 74.5-73.9 74.9-73.5.3.4 49.3 60.3 108.9 133.2zm119.4-29l22.7 26.4-.3 54.6c-.3 54.3-.3 54.5-2.6 60.2-2.6 6.5-9.4 14.5-14.6 17.3-3.6 1.9-3.6 1.9-5.5 0-1.4-1.5-88.3-107.9-93.4-114.3-.8-1 7.3-9.7 34.3-36.7 19.5-19.5 35.7-35.1 36.1-34.7.4.4 10.9 12.6 23.3 27.2z"/><path d="M334 124.6c-21.1 5.6-35.1 27.6-31.1 48.9 5.2 28.6 35.4 44.3 61.4 32 26.3-12.4 32.9-47.4 12.9-68.7-11-11.7-27.5-16.4-43.2-12.2zm25.5 11.8c6.8 3.1 13 9.3 16.3 16.5 3.9 8.2 3.8 19.3-.1 27.3-3.6 7.4-11.9 15-18.9 17.4-26.2 9-51.4-16.2-42.5-42.3 2-5.8 8.7-13.9 14.4-17.5 8.7-5.3 21-5.9 30.8-1.4z"/></g></svg>