<svg width="20" height="18" fill="none" xmlns="http://www.w3.org/2000/svg"><path d="M19.967 5.367C19.675 2.257 17.4 0 14.554 0a5.416 5.416 0 00-4.61 2.571C8.978.968 7.312 0 5.447 0 2.6 0 .325 2.257.033 5.367c-.023.137-.117.86.17 2.04.415 1.7 1.373 3.247 2.77 4.472L9.94 18l7.087-6.12c1.397-1.226 2.355-2.772 2.77-4.473.287-1.18.192-1.902.17-2.04zm-.92 1.87c-.378 1.552-1.255 2.968-2.534 4.09l-6.568 5.671-6.456-5.67C2.21 10.204 1.331 8.789.952 7.236.68 6.12.792 5.49.792 5.486l.006-.038C1.048 2.723 3.002.745 5.446.745c1.802 0 3.39 1.072 4.143 2.798l.354.812.354-.812A4.649 4.649 0 0114.555.745c2.442 0 4.397 1.978 4.652 4.739 0 .006.113.636-.16 1.752z" fill="currentColor"/></svg>