<svg width="26" height="27" fill="none" xmlns="http://www.w3.org/2000/svg"><path d="M13.55 21.837l6.3 4c.813.513 1.813-.25 1.575-1.187L19.6 17.475a1.087 1.087 0 01.362-1.1l5.65-4.713c.738-.612.363-1.85-.6-1.912l-7.375-.475a1.037 1.037 0 01-.912-.675l-2.75-6.925a1.038 1.038 0 00-1.95 0L9.275 8.6a1.038 1.038 0 01-.913.675L.987 9.75c-.962.063-1.337 1.3-.6 1.912l5.65 4.713a1.087 1.087 0 01.363 1.1l-1.688 6.65c-.287 1.125.913 2.038 1.875 1.425l5.863-3.713a1.025 1.025 0 011.1 0z" fill="currentColor"/></svg>