<svg width="191" height="20" fill="none" xmlns="http://www.w3.org/2000/svg"><path d="M2.92 6.58l.24 2.79-.12-.24c.46-.94 1.11-1.68 1.95-2.22.86-.54 1.84-.81 2.94-.81.7 0 1.32.11 1.86.33.54.22.98.54 1.32.96.36.4.59.9.69 1.5l-.15.09c.48-.9 1.14-1.6 1.98-2.1.86-.52 1.76-.78 2.7-.78 1.22 0 2.18.35 2.88 1.05.72.68 1.09 1.57 1.11 2.67V19h-2.79v-8.19c-.02-.64-.18-1.17-.48-1.59-.28-.44-.78-.68-1.5-.72-.72 0-1.37.22-1.95.66-.56.44-1 1.01-1.32 1.71-.32.68-.49 1.42-.51 2.22V19H8.98v-8.19c-.02-.64-.19-1.17-.51-1.59-.3-.44-.81-.68-1.53-.72-.74 0-1.39.22-1.95.66-.56.44-1 1.01-1.32 1.71-.3.7-.45 1.45-.45 2.25V19H.43V6.58h2.49zM29.146 19.3c-1.16 0-2.22-.25-3.18-.75-.94-.5-1.69-1.23-2.25-2.19-.54-.98-.81-2.17-.81-3.57 0-1.38.29-2.57.87-3.57.58-1.02 1.35-1.8 2.31-2.34.98-.54 2.05-.81 3.21-.81 1.16 0 2.14.27 2.94.81.8.52 1.41 1.14 1.83 1.86l-.18.48.27-2.64h2.58V19h-2.79v-3.24l.3.72c-.08.2-.26.46-.54.78-.26.3-.62.61-1.08.93-.44.32-.95.59-1.53.81-.58.2-1.23.3-1.95.3zm.75-2.31c.7 0 1.33-.13 1.89-.39.56-.26 1.02-.62 1.38-1.08.38-.48.64-1.05.78-1.71v-2.43c-.16-.6-.44-1.12-.84-1.56-.4-.46-.88-.81-1.44-1.05-.56-.26-1.18-.39-1.86-.39-.74 0-1.42.18-2.04.54-.62.36-1.12.86-1.5 1.5-.36.64-.54 1.39-.54 2.25 0 .8.19 1.53.57 2.19.38.66.89 1.18 1.53 1.56.64.38 1.33.57 2.07.57zM42.854 6.58l.24 3.03-.12-.48c.4-.92 1.05-1.65 1.95-2.19.9-.56 1.94-.84 3.12-.84 1.18 0 2.14.35 2.88 1.05.76.68 1.15 1.57 1.17 2.67V19h-2.82v-8.19c-.02-.68-.22-1.23-.6-1.65-.36-.44-.93-.66-1.71-.66-.72 0-1.37.2-1.95.6-.58.4-1.04.95-1.38 1.65-.32.7-.48 1.51-.48 2.43V19h-2.79V6.58h2.49zm12.892 0h2.79V19h-2.79V6.58zm-.21-4.5c0-.44.17-.81.51-1.11.36-.3.75-.45 1.17-.45.42 0 .79.15 1.11.45.34.3.51.67.51 1.11 0 .46-.17.84-.51 1.14-.32.28-.69.42-1.11.42-.42 0-.81-.15-1.17-.45-.34-.3-.51-.67-.51-1.11zm16.707 15.78c-.56.44-1.23.79-2.01 1.05-.78.26-1.56.39-2.34.39-1.36 0-2.55-.27-3.57-.81a6.053 6.053 0 01-2.4-2.25c-.56-.98-.84-2.13-.84-3.45 0-1.32.3-2.47.9-3.45.62-.98 1.42-1.73 2.4-2.25 1-.54 2.07-.81 3.21-.81 1 0 1.89.14 2.67.42.8.28 1.48.66 2.04 1.14l-1.38 1.8c-.36-.28-.8-.53-1.32-.75-.52-.22-1.11-.33-1.77-.33-.72 0-1.39.19-2.01.57-.6.36-1.08.86-1.44 1.5-.34.64-.51 1.36-.51 2.16 0 .76.18 1.47.54 2.13.36.64.86 1.15 1.5 1.53.64.36 1.37.54 2.19.54.54 0 1.03-.08 1.47-.24.46-.16.87-.38 1.23-.66l1.44 1.77zm6.332 1.62c-1.12 0-2.05-.34-2.79-1.02-.72-.7-1.1-1.6-1.14-2.7V6.58h2.79v8.19c.04.68.23 1.23.57 1.65.36.42.92.64 1.68.66.7 0 1.32-.2 1.86-.6.56-.42 1.01-.98 1.35-1.68.34-.72.51-1.53.51-2.43V6.58h2.79V19h-2.55l-.24-3.06.15.54c-.24.58-.61 1.1-1.11 1.56-.48.44-1.05.79-1.71 1.05-.66.26-1.38.39-2.16.39zm13.737-12.9l.27 3.6-.15-.48c.32-.76.78-1.4 1.38-1.92.62-.54 1.26-.95 1.92-1.23.68-.3 1.27-.45 1.77-.45l-.15 2.76c-.94-.06-1.77.12-2.49.54-.7.42-1.26.98-1.68 1.68-.4.7-.6 1.45-.6 2.25V19h-2.76V6.58h2.49zm12.822 12.72c-1.42 0-2.64-.28-3.66-.84-1.02-.58-1.81-1.36-2.37-2.34-.54-1-.81-2.14-.81-3.42 0-1.22.31-2.33.93-3.33.62-1 1.45-1.8 2.49-2.4 1.04-.6 2.2-.9 3.48-.9 1.64 0 3 .48 4.08 1.44s1.81 2.28 2.19 3.96l-10.23 3.6-.66-1.65 8.4-3.06-.6.39a4.05 4.05 0 00-1.2-1.71c-.56-.5-1.29-.75-2.19-.75-.76 0-1.44.19-2.04.57-.6.36-1.07.86-1.41 1.5-.34.64-.51 1.37-.51 2.19 0 .86.18 1.62.54 2.28.36.64.85 1.15 1.47 1.53.64.36 1.36.54 2.16.54.54 0 1.06-.1 1.56-.3.52-.2 1-.46 1.44-.78l1.29 2.07c-.62.42-1.32.76-2.1 1.02-.76.26-1.51.39-2.25.39zm9.226-2.73h12.15V19h-12.15v-2.43zm18.912-9.99l.27 3.6-.15-.48c.32-.76.78-1.4 1.38-1.92.62-.54 1.26-.95 1.92-1.23.68-.3 1.27-.45 1.77-.45l-.15 2.76c-.94-.06-1.77.12-2.49.54-.7.42-1.26.98-1.68 1.68-.4.7-.6 1.45-.6 2.25V19h-2.76V6.58h2.49zm5.982 6.09c0-1.24.29-2.36.87-3.36.6-1 1.42-1.79 2.46-2.37 1.04-.58 2.22-.87 3.54-.87 1.36 0 2.55.29 3.57.87 1.02.58 1.81 1.37 2.37 2.37s.84 2.12.84 3.36c0 1.24-.28 2.37-.84 3.39-.56 1-1.36 1.79-2.4 2.37-1.02.58-2.21.87-3.57.87-1.32 0-2.5-.27-3.54-.81a6.422 6.422 0 01-2.43-2.31c-.58-1-.87-2.17-.87-3.51zm2.79.03c0 .8.18 1.53.54 2.19.36.64.84 1.15 1.44 1.53.62.38 1.3.57 2.04.57.78 0 1.47-.19 2.07-.57.62-.38 1.1-.89 1.44-1.53.34-.66.51-1.39.51-2.19s-.17-1.52-.51-2.16c-.34-.66-.82-1.18-1.44-1.56-.6-.4-1.29-.6-2.07-.6-.76 0-1.45.2-2.07.6-.6.4-1.08.93-1.44 1.59-.34.64-.51 1.35-.51 2.13zm12.358-.03c0-1.24.29-2.36.87-3.36.6-1 1.42-1.79 2.46-2.37 1.04-.58 2.22-.87 3.54-.87 1.36 0 2.55.29 3.57.87 1.02.58 1.81 1.37 2.37 2.37s.84 2.12.84 3.36c0 1.24-.28 2.37-.84 3.39-.56 1-1.36 1.79-2.4 2.37-1.02.58-2.21.87-3.57.87-1.32 0-2.5-.27-3.54-.81a6.422 6.422 0 01-2.43-2.31c-.58-1-.87-2.17-.87-3.51zm2.79.03c0 .8.18 1.53.54 2.19.36.64.84 1.15 1.44 1.53.62.38 1.3.57 2.04.57.78 0 1.47-.19 2.07-.57.62-.38 1.1-.89 1.44-1.53.34-.66.51-1.39.51-2.19s-.17-1.52-.51-2.16c-.34-.66-.82-1.18-1.44-1.56-.6-.4-1.29-.6-2.07-.6-.76 0-1.45.2-2.07.6-.6.4-1.08.93-1.44 1.59-.34.64-.51 1.35-.51 2.13zm15.928-6.12l.24 2.79-.12-.24c.46-.94 1.11-1.68 1.95-2.22.86-.54 1.84-.81 2.94-.81.7 0 1.32.11 1.86.33.54.22.98.54 1.32.96.36.4.59.9.69 1.5l-.15.09c.48-.9 1.14-1.6 1.98-2.1.86-.52 1.76-.78 2.7-.78 1.22 0 2.18.35 2.88 1.05.72.68 1.09 1.57 1.11 2.67V19h-2.79v-8.19c-.02-.64-.18-1.17-.48-1.59-.28-.44-.78-.68-1.5-.72-.72 0-1.37.22-1.95.66-.56.44-1 1.01-1.32 1.71-.32.68-.49 1.42-.51 2.22V19h-2.79v-8.19c-.02-.64-.19-1.17-.51-1.59-.3-.44-.81-.68-1.53-.72-.74 0-1.39.22-1.95.66-.56.44-1 1.01-1.32 1.71-.3.7-.45 1.45-.45 2.25V19h-2.79V6.58h2.49z" fill="#F7F7F7"/></svg>