<svg width="192" height="48" fill="none" xmlns="http://www.w3.org/2000/svg"><path d="M13.841 21.72c.12-.68.24-1.32.36-2 .52-2.72 1.24-5.36 2.2-7.92.48-1.28 1.04-2.52 1.68-3.72.64-1.2 1.4-2.32 2.24-3.32.84-1.04 1.84-1.88 3-2.52.56-.28 1.16-.52 1.8-.64.28-.08.6-.12.92-.16h.92c.6.08 1.16.28 1.64.64.44.36.8.84 1.08 1.4.28.6.44 1.2.56 1.88.12.64.16 1.28.12 1.96-.04 1.36-.2 2.72-.52 4.04-.36 1.32-.8 2.64-1.32 3.88-1.08 2.56-2.52 4.88-4.4 6.92-1.88 2.08-4.08 3.64-6.68 4.64-1.32.48-2.64.76-4 .84h-.2c.04-1.28.16-2.56.32-3.88.08-.68.16-1.36.28-2.04zm22.72 4.92c-.12-.04-.2 0-.28.04-.12.04-.16.16-.2.28-.24 1.36-.56 2.72-.96 4.04-.4 1.32-.88 2.64-1.4 3.92-.52 1.28-1.08 2.52-1.76 3.76-.64 1.24-1.36 2.4-2.2 3.52-.44.52-.88 1.04-1.36 1.56-.48.48-1 .92-1.52 1.36-1.08.84-2.32 1.4-3.68 1.64-.64.08-1.32.08-2 0-.32-.04-.64-.12-.96-.2-.32-.08-.64-.2-.92-.36a6.895 6.895 0 01-3-2.56c-.76-1.08-1.36-2.28-1.8-3.6a22 22 0 01-.96-3.96c-.2-1.36-.32-2.72-.36-4.08-.04-.68-.04-1.4-.04-2.08 0-.52 0-1 .04-1.52h.28c1.44-.12 2.84-.4 4.2-.92 1.36-.52 2.64-1.16 3.8-1.96 1.16-.84 2.24-1.76 3.2-2.8 1-1.04 1.88-2.16 2.64-3.36.8-1.16 1.48-2.4 2.08-3.72.6-1.32 1.08-2.64 1.44-4.04.36-1.4.6-2.8.64-4.24.04-.72 0-1.44-.12-2.2-.08-.72-.28-1.44-.6-2.16-.28-.72-.76-1.36-1.4-1.88-.68-.52-1.4-.84-2.24-.92-.2-.04-.36-.04-.56-.04-.2-.04-.4-.04-.6 0-.36.04-.76.08-1.12.12-.76.16-1.48.4-2.16.76-1.32.68-2.48 1.6-3.48 2.72-1 1.08-1.84 2.28-2.56 3.52a34.38 34.38 0 00-1.92 3.84 42.71 42.71 0 00-2.4 8.2c-.12.72-.24 1.44-.36 2.12-.12.68-.2 1.4-.28 2.12-.12 1.36-.2 2.72-.24 4.08-.68-.04-1.4-.16-2.08-.28-1.32-.28-2.6-.72-3.84-1.36-1.24-.6-2.36-1.36-3.4-2.28a.717.717 0 00-.28-.2.765.765 0 00-.72 0c-.24.12-.4.28-.52.52-.12.28-.12.52 0 .76.08.24.24.4.48.52.28.12.52.2.76.32 1.08.48 2.16.92 3.28 1.32 1.32.52 2.72.88 4.12 1.16.72.16 1.44.24 2.2.28 0 .52 0 1.04.04 1.56.04.68.08 1.4.12 2.12.12 1.4.36 2.84.64 4.24.28 1.4.72 2.76 1.24 4.12.52 1.32 1.24 2.6 2.12 3.76.44.56.96 1.08 1.52 1.56.6.44 1.2.84 1.88 1.12.36.12.68.24 1.04.36.36.08.72.16 1.08.2.76.04 1.48.04 2.2-.08 1.48-.28 2.76-.88 3.88-1.8 1.16-.92 2.12-1.92 2.96-3.04 1.68-2.28 3.04-4.76 4.12-7.4.52-1.28 1-2.6 1.44-3.96.44-1.32.84-2.68 1.16-4.04v-.04c.04-.12 0-.2-.04-.32a.363.363 0 00-.28-.12zm-.09-1.32c.04-.2.16-.4.32-.56.16-.12.36-.24.56-.28.2-.04.44-.08.68-.04.24.04.44.12.64.24.36.24.64.6.8 1.04.2.68.24 1.4.04 2.16-.04-.04-.04-.04-.08-.04h-.08c-.52-.08-1.04-.2-1.52-.4h-.08v-.04c.12-.16.2-.36.2-.6 0-.2-.08-.4-.2-.6a.948.948 0 00-.6-.36c-.28-.04-.52.04-.72.16v-.04c-.04-.2-.04-.44.04-.64zm2.8 3.24c-.12.2-.24.4-.36.56-.16.16-.32.28-.44.32-.08.04-.16.04-.2.04-.04 0-.12 0-.2-.04-.16-.04-.28-.08-.36-.2a.79.79 0 01-.24-.44c-.04-.2-.08-.36-.08-.56 0-.12 0-.24.04-.36.08.04.16.04.2.08.52.2 1.08.32 1.64.4h.08c-.04.04-.04.12-.08.2zm6.6-1.96c-.04-.08-.12-.12-.2-.16-.08 0-.16.04-.24.08-.88.6-1.84 1-2.92 1.2-.68.12-1.32.2-2 .2.04-.24.08-.48.08-.72 0-.6-.12-1.2-.32-1.8-.12-.28-.28-.52-.48-.8-.2-.24-.48-.44-.76-.6-.28-.16-.6-.24-.92-.28-.28-.04-.6 0-.92.08-.32.08-.6.24-.88.48-.2.24-.36.52-.48.84-.12.52-.04 1 .16 1.44l-.08.16c-.08.2-.12.4-.16.6-.04.2-.04.36-.04.56 0 .16 0 .32.04.52.04.36.16.68.32 1 .12.36.36.64.68.92.32.28.68.4 1.12.44.08.04.16.04.24.04h.04c.12 0 .2 0 .32-.04.2-.04.36-.08.56-.2.36-.2.6-.44.8-.72.2-.28.32-.6.44-.88l.16-.56c.76 0 1.48-.08 2.16-.2 1.08-.2 2.16-.6 3.16-1.12.04 0 .04 0 .04-.04.08-.04.12-.12.16-.2 0-.08-.04-.16-.08-.24zm11.812-.48a.569.569 0 00-.24-.08c-.08 0-.16.04-.24.08-.6.68-1.32 1.24-2.08 1.76s-1.52.92-2.36 1.24c-.84.36-1.72.56-2.6.64-.44.04-.84 0-1.24-.12-.44-.12-.76-.32-1.04-.6-.24-.28-.4-.6-.52-.96s-.16-.72-.16-1.08c-.04-.4-.04-.8-.04-1.2 0-.4.04-.8.08-1.2.04-.36.12-.72.24-1.08.12-.36.32-.6.6-.8.28-.16.56-.16.8 0 .08.12.12.24.16.36 0 .16-.04.32-.16.48-.2.28-.28.6-.16.96.12.28.28.44.52.56.24.12.48.12.76 0s.44-.28.56-.52c.12-.24.12-.48 0-.76l-.08-.24v-.04c-.12-.28-.24-.56-.4-.84-.16-.28-.36-.52-.64-.72-.28-.2-.56-.32-.88-.36-.32-.04-.64 0-.92.12-.6.24-1.04.6-1.4 1.04-.36.44-.6.92-.76 1.44a5.28 5.28 0 00-.24 1.56c0 .52.04 1 .16 1.52s.36 1.04.64 1.48c.36.48.76.84 1.24 1.12.48.28.96.44 1.48.48.52.04 1 .04 1.48-.04.92-.12 1.84-.4 2.68-.76 1.72-.76 3.28-1.76 4.72-2.96h.04c.04-.08.08-.16.08-.24 0-.08-.04-.16-.08-.24zm.038-.8c.04-.2.16-.4.32-.56.16-.12.36-.24.56-.28.2-.04.44-.08.68-.04.24.04.44.12.64.24.36.24.64.6.8 1.04.2.68.24 1.4.04 2.16-.04-.04-.04-.04-.08-.04h-.08c-.52-.08-1.04-.2-1.52-.4h-.08v-.04c.12-.16.2-.36.2-.6 0-.2-.08-.4-.2-.6a.948.948 0 00-.6-.36c-.28-.04-.52.04-.72.16v-.04c-.04-.2-.04-.44.04-.64zm2.8 3.24c-.12.2-.24.4-.36.56-.16.16-.32.28-.44.32-.08.04-.16.04-.2.04-.04 0-.12 0-.2-.04-.16-.04-.28-.08-.36-.2a.79.79 0 01-.24-.44c-.04-.2-.08-.36-.08-.56 0-.12 0-.24.04-.36.08.04.16.04.2.08.52.2 1.08.32 1.64.4h.08c-.04.04-.04.12-.08.2zm6.6-1.96c-.04-.08-.12-.12-.2-.16-.08 0-.16.04-.24.08-.88.6-1.84 1-2.92 1.2-.68.12-1.32.2-2 .2.04-.24.08-.48.08-.72 0-.6-.12-1.2-.32-1.8-.12-.28-.28-.52-.48-.8-.2-.24-.48-.44-.76-.6-.28-.16-.6-.24-.92-.28-.28-.04-.6 0-.92.08-.32.08-.6.24-.88.48-.2.24-.36.52-.48.84-.12.52-.04 1 .16 1.44l-.08.16c-.08.2-.12.4-.16.6-.04.2-.04.36-.04.56 0 .16 0 .32.04.52.04.36.16.68.32 1 .12.36.36.64.68.92.32.28.68.4 1.12.44.08.04.16.04.24.04h.04c.12 0 .2 0 .32-.04.2-.04.36-.08.56-.2.36-.2.6-.44.8-.72.2-.28.32-.6.44-.88l.16-.56c.76 0 1.48-.08 2.16-.2 1.08-.2 2.16-.6 3.16-1.12.04 0 .04 0 .04-.04.08-.04.12-.12.16-.2 0-.08-.04-.16-.08-.24zm33.439-4.88c.12-.68.24-1.32.36-2 .52-2.72 1.24-5.36 2.2-7.92.48-1.28 1.04-2.52 1.68-3.72.64-1.2 1.4-2.32 2.24-3.32.84-1.04 1.84-1.88 3-2.52.56-.28 1.16-.52 1.8-.64.28-.08.6-.12.92-.16h.92c.6.08 1.16.28 1.64.64.44.36.8.84 1.08 1.4.28.6.44 1.2.56 1.88.12.64.16 1.28.12 1.96-.04 1.36-.2 2.72-.52 4.04-.36 1.32-.8 2.64-1.32 3.88-1.08 2.56-2.52 4.88-4.4 6.92-1.88 2.08-4.08 3.64-6.68 4.64-1.32.48-2.64.76-4 .84h-.2c.04-1.28.16-2.56.32-3.88.08-.68.16-1.36.28-2.04zm22.72 4.92c-.12-.04-.2 0-.28.04-.12.04-.16.16-.2.28-.24 1.36-.56 2.72-.96 4.04-.4 1.32-.88 2.64-1.4 3.92-.52 1.28-1.08 2.52-1.76 3.76-.64 1.24-1.36 2.4-2.2 3.52-.44.52-.88 1.04-1.36 1.56-.48.48-1 .92-1.52 1.36-1.08.84-2.32 1.4-3.68 1.64-.64.08-1.32.08-2 0-.32-.04-.64-.12-.96-.2-.32-.08-.64-.2-.92-.36a6.895 6.895 0 01-3-2.56c-.76-1.08-1.36-2.28-1.8-3.6a22 22 0 01-.96-3.96c-.2-1.36-.32-2.72-.36-4.08-.04-.68-.04-1.4-.04-2.08 0-.52 0-1 .04-1.52h.28c1.44-.12 2.84-.4 4.2-.92 1.36-.52 2.64-1.16 3.8-1.96 1.16-.84 2.24-1.76 3.2-2.8 1-1.04 1.88-2.16 2.64-3.36.8-1.16 1.48-2.4 2.08-3.72.6-1.32 1.08-2.64 1.44-4.04.36-1.4.6-2.8.64-4.24.04-.72 0-1.44-.12-2.2-.08-.72-.28-1.44-.6-2.16-.28-.72-.76-1.36-1.4-1.88-.68-.52-1.4-.84-2.24-.92-.2-.04-.36-.04-.56-.04-.2-.04-.4-.04-.6 0-.36.04-.76.08-1.12.12-.76.16-1.48.4-2.16.76-1.32.68-2.48 1.6-3.48 2.72-1 1.08-1.84 2.28-2.56 3.52a34.38 34.38 0 00-1.92 3.84 42.71 42.71 0 00-2.4 8.2c-.12.72-.24 1.44-.36 2.12-.12.68-.2 1.4-.28 2.12-.12 1.36-.2 2.72-.24 4.08-.68-.04-1.4-.16-2.08-.28-1.32-.28-2.6-.72-3.84-1.36-1.24-.6-2.36-1.36-3.4-2.28a.717.717 0 00-.28-.2.765.765 0 00-.72 0c-.24.12-.4.28-.52.52-.12.28-.12.52 0 .76.08.24.24.4.48.52.28.12.52.2.76.32 1.08.48 2.16.92 3.28 1.32 1.32.52 2.72.88 4.12 1.16.72.16 1.44.24 2.2.28 0 .52 0 1.04.04 1.56.04.68.08 1.4.12 2.12.12 1.4.36 2.84.64 4.24.28 1.4.72 2.76 1.24 4.12.52 1.32 1.24 2.6 2.12 3.76.44.56.96 1.08 1.52 1.56.6.44 1.2.84 1.88 1.12.36.12.68.24 1.04.36.36.08.72.16 1.08.2.76.04 1.48.04 2.2-.08 1.48-.28 2.76-.88 3.88-1.8 1.16-.92 2.12-1.92 2.96-3.04 1.68-2.28 3.04-4.76 4.12-7.4.52-1.28 1-2.6 1.44-3.96.44-1.32.84-2.68 1.16-4.04v-.04c.04-.12 0-.2-.04-.32a.363.363 0 00-.28-.12zm16.39-.16c-.12-.08-.2-.12-.32-.12-.12.04-.2.08-.28.16-.36.36-.72.72-1.12 1.08-.4.36-.84.64-1.28.88-.24.12-.48.2-.72.28-.24.08-.48.12-.76.16h-.16l-.2.04c-.12 0-.24 0-.36-.04-.24-.04-.48-.08-.72-.2-.44-.2-.84-.52-1.2-.88-.32-.32-.64-.64-.92-1-.04-.04-.08-.12-.12-.16l-.16-.16c-.28-.36-.64-.72-1.08-1.08-.28-.2-.6-.32-1.04-.36-.24 0-.44.04-.64.12-.2.04-.36.16-.52.28-.28.2-.48.44-.68.68-.16.28-.32.52-.44.76-.28.52-.48 1.04-.68 1.56-.36 1.04-.72 2.08-1 3.12l-.48 1.52-.12.36c-.04-.4-.12-.8-.2-1.2-.24-2.12-.4-4.2-.48-6.32-.12-2.12-.16-4.28-.16-6.4s.08-4.24.24-6.36c.12-1.04.24-2.08.44-3.08.08-.52.2-.96.36-1.4.08-.2.16-.4.24-.52h.04c.2-.04.4-.16.56-.36.16-.16.24-.36.24-.6 0-.28-.08-.48-.28-.68-.2-.2-.4-.28-.68-.28-.2.04-.36.08-.56.12a.83.83 0 00-.4.24c-.2.2-.36.36-.48.52-.2.32-.36.64-.44.92-.2.6-.32 1.16-.4 1.72-.2 1.08-.32 2.2-.36 3.28-.12 2.2-.16 4.36-.12 6.48.04 2.16.12 4.32.28 6.48.12 2.12.36 4.28.64 6.44.08.52.2 1.08.32 1.64.04.28.16.56.28.84.04.08.08.16.12.28l.16.16c.04.08.16.16.28.24.12.04.2.04.32.04s.24-.04.32-.08c.08-.04.16-.08.2-.12l.08-.08c.08-.12.16-.2.2-.28.12-.28.24-.56.32-.8v-.04l.2-.6c.04-.08.04-.16.04-.2l.48-1.56c.28-1 .64-2 1-2.96.2-.52.4-.96.64-1.4l.36-.6c.12-.2.28-.36.4-.48s.24-.16.36-.16c.12-.04.24 0 .44.12s.36.24.56.4l.6.48c.04.04.04.08.08.12.36.32.76.64 1.16.96.2.16.44.32.72.48.24.12.48.24.76.36s.56.16.84.16c.16.04.32.04.44 0h.44c.56-.08 1.08-.24 1.6-.48.72-.36 1.4-.8 2.04-1.32.24-.16.48-.32.68-.48l.08-.08c.08-.08.12-.16.12-.28 0-.12-.04-.2-.12-.28zm2.688 1.08c-.28.52-.64.96-1 1.4-.16.2-.32.36-.52.48s-.36.16-.52.12c-.04 0-.04 0-.08-.04l-.08-.08c-.04 0-.04 0-.04-.04a4.25 4.25 0 01-.12-.56c0-.48.08-.96.28-1.48s.44-.96.76-1.32c.32-.36.64-.6.96-.64.16 0 .32.04.44.08.04.04.12.04.2.08.08.04.16.12.24.16.12.04.2.12.32.16.08.04.12.08.16.08V26l-.04.04-.6.96c-.12.2-.24.36-.36.56zm11.96-1.28a1.95 1.95 0 00-.28-.12c-.12 0-.2.04-.32.12-.4.44-.84.8-1.32 1.16-.44.36-.96.68-1.48.96-.28.12-.52.24-.8.28-.28.12-.52.16-.8.12a1.3 1.3 0 01-.68-.28c-.2-.16-.4-.36-.52-.6-.24-.44-.44-.92-.56-1.44-.04-.04-.04-.12-.04-.16l-.32-.88c-.12-.28-.28-.6-.56-.88-.12-.12-.28-.24-.48-.32-.2-.04-.36-.08-.56-.08-.4.04-.76.2-1.04.4l-.08.08c0 .04 0 .04-.04.04a.92.92 0 00-.28-.32c-.2-.12-.4-.28-.6-.4-.24-.12-.44-.2-.56-.24-.44-.12-.88-.16-1.32-.04-.44.12-.84.28-1.16.56-.28.24-.56.52-.76.8-.44.6-.72 1.2-.88 1.84-.2.64-.28 1.32-.24 2.04.04.36.16.76.36 1.16.12.2.32.4.56.52.28.12.52.2.72.2.2 0 .44-.04.64-.12.2-.08.4-.16.52-.28.32-.2.6-.44.8-.72.36-.52.72-1.08 1-1.6.08-.2.16-.36.24-.52.2-.36.4-.72.6-1.04.28-.52.6-1 .96-1.36.2-.16.4-.24.6-.28.2-.04.4.04.56.16a2 2 0 01.44.64l.32.8c.04.08.04.16.08.28.16.48.36.96.64 1.44.16.28.36.52.64.72.28.2.6.32.96.36.68 0 1.32-.16 1.84-.44 1-.52 1.92-1.08 2.84-1.72.08-.08.16-.16.28-.2.04-.04.04-.04.08-.04.08-.08.12-.16.12-.28 0-.12-.04-.2-.12-.32zm17.007.2c-.08-.12-.16-.16-.28-.16-.12 0-.2.04-.28.08-.84.68-1.72 1.24-2.72 1.68-.48.24-1 .44-1.52.56-.52.12-1 .2-1.52.16-.52-.04-1-.2-1.4-.52-.36-.28-.68-.68-.96-1.16-.24-.44-.48-.92-.68-1.44l-.08-.24c-.08-.16-.16-.32-.24-.52-.12-.28-.24-.52-.44-.8-.12-.12-.24-.24-.44-.36-.08-.04-.16-.12-.28-.16-.12-.04-.24-.04-.36-.04-.36 0-.68.08-1 .24-.6.32-1.04.72-1.4 1.2-.4.44-.76.92-1.04 1.36-.32.48-.64.96-.92 1.4-.08.16-.16.32-.28.48v-.08l.08-1.12v-.48c.04-.24-.04-.44-.16-.64a.943.943 0 00-.64-.36c-.28-.04-.48.04-.68.16-.2.16-.36.36-.4.64-.12.52-.16 1.08-.2 1.68-.04.28-.04.6 0 .92 0 .16 0 .32.04.48.04.16.08.36.12.56.04.12.08.24.16.36.04.12.16.28.28.4.16.16.36.28.6.36.12.04.2.04.32.04h.24l.08-.04h.04c.04-.04.08-.04.12-.04.08-.04.16-.04.2-.08.04-.04.08-.04.12-.08l.16-.16c.12-.12.2-.2.24-.28.12-.12.2-.28.24-.4.16-.28.28-.56.4-.8l.32-.76c.2-.52.44-1 .68-1.48.24-.44.52-.88.8-1.32.28-.44.6-.76.96-1 .2-.12.36-.16.56-.2h.08l.04.04c.08.04.16.08.2.16.16.16.32.36.44.56l.36.72c.24.52.52 1 .84 1.48.28.48.68.92 1.16 1.28.52.36 1.08.52 1.68.52.6 0 1.16-.08 1.68-.2.56-.12 1.08-.32 1.6-.52 1-.44 2-.92 2.96-1.48.04-.04.04-.04.08-.04.08-.08.12-.16.16-.28 0-.12-.04-.2-.12-.28zm1.911-.96c.04 0 .12 0 .2-.04h.28v-.04c.04.04.04.04.04.08 0 .08-.04.16-.12.28-.2.24-.44.4-.76.52-.08.04-.16.08-.28.08.08-.44.28-.72.64-.88zm8.96-12.96c.12-.88.28-1.76.44-2.6.08-.4.16-.8.28-1.16 0 .28-.04.56-.08.84-.04.76-.16 1.56-.28 2.32-.12.76-.24 1.56-.36 2.32-.12.8-.28 1.56-.44 2.32-.04.2-.08.36-.12.52.16-1.52.36-3.04.56-4.56zm8.92 13.92c-.12-.04-.24 0-.32.04-.08.08-.12.16-.16.28-.2.84-.44 1.68-.76 2.52-.32.84-.68 1.64-1.08 2.44s-.88 1.56-1.4 2.24c-.52.72-1.16 1.28-1.88 1.68-.36.2-.72.28-1.08.24-.4-.04-.76-.16-1.04-.4-.32-.2-.56-.48-.76-.84-.2-.36-.4-.72-.56-1.16-.28-.8-.44-1.64-.56-2.48-.12-.88-.16-1.76-.2-2.6-.12-1.76-.12-3.52-.08-5.32l.12-2.64c.04-.16.04-.32.04-.48 0-.08 0-.16.04-.24.28-1 .52-2.04.72-3.04.36-1.56.64-3.12.88-4.68.28-1.56.48-3.16.64-4.72 0-.12-.04-.2-.12-.28a.89.89 0 00-.32-.52c-.2-.12-.4-.2-.6-.2-.28.04-.44.08-.56.16-.12.08-.24.16-.28.2-.12.12-.2.24-.24.32-.12.16-.2.32-.24.44-.12.24-.2.48-.28.72-.12.44-.24.92-.36 1.36-.2.92-.4 1.8-.56 2.72-.28 1.8-.48 3.6-.64 5.4a82.6 82.6 0 00-.2 5.48v1.48c-.12.32-.28.64-.44.96-.36.68-.76 1.36-1.2 1.96-.44.64-1 1.16-1.6 1.56-.32.2-.64.36-.96.44-.2.04-.36.04-.52.04-.2.04-.36 0-.52-.08-.32-.12-.6-.28-.8-.52-.2-.2-.32-.44-.44-.68-.12-.32-.2-.68-.24-1.08.16 0 .32 0 .52-.04.48-.08.92-.28 1.32-.64.2-.16.32-.4.44-.72.04-.16.08-.32.08-.52-.04-.2-.08-.36-.2-.56-.12-.16-.28-.28-.44-.4-.16-.08-.32-.12-.44-.16-.16-.04-.32-.04-.44-.04a.682.682 0 00-.4 0c-.6.08-1.08.36-1.52.8-.36.44-.64.88-.76 1.4-.12.48-.16 1-.08 1.52s.28 1 .6 1.44c.36.44.76.72 1.24.92.52.2 1 .28 1.44.24.12-.04.24-.04.36-.04l.32-.04c.2-.04.44-.08.64-.12.44-.12.8-.32 1.16-.56.68-.52 1.28-1.12 1.72-1.8.44-.68.84-1.36 1.2-2.08v-.04c0-.04 0-.04.04-.04.04.96.12 1.92.24 2.88.12.92.32 1.8.56 2.72.2.92.52 1.8.92 2.64.2.44.44.84.72 1.24.28.44.68.8 1.12 1.08.44.28.96.44 1.48.44.28 0 .52-.04.76-.08.28-.08.52-.2.72-.32.44-.24.8-.52 1.16-.88.32-.32.6-.68.88-1.04s.56-.76.76-1.16c.24-.4.48-.8.68-1.2.44-.8.8-1.64 1.12-2.48.36-.84.64-1.68.92-2.56v-.04c.04-.12 0-.2-.04-.32-.04-.08-.12-.12-.24-.16z" fill="#1D3C34"/></svg>