<?xml version="1.0" encoding="utf-8"?><svg viewBox="0 0 682.667 682.667" xmlns="http://www.w3.org/2000/svg" xmlns:xlink="http://www.w3.org/1999/xlink"><style>:root>svg{display:none}:root>svg:target{display:block}</style><svg fill="none" viewBox="0 0 46 28" id="icon-arrow-next" xmlns="http://www.w3.org/2000/svg"><path fill-rule="evenodd" clip-rule="evenodd" d="M26.524 0L46 13.999 26.524 28v-9.916L23.354 15H0v-2h23.35l3.174-3.084V0zm3.22 6.208v5.004l-2.868 2.787 2.868 2.79v5.004L40.584 14l-10.84-7.791z" fill="currentColor"/></svg><svg fill="none" viewBox="0 0 46 28" id="icon-arrow-prev" xmlns="http://www.w3.org/2000/svg"><path fill-rule="evenodd" clip-rule="evenodd" d="M19.476 28L0 14.001 19.476 0v9.916L22.646 13H46v2H22.65l-3.174 3.084V28zm-3.22-6.208v-5.004l2.868-2.787-2.868-2.79V6.208L5.416 14l10.84 7.791z" fill="currentColor"/></svg><svg fill="none" viewBox="0 0 8 14" id="icon-arrow-right" xmlns="http://www.w3.org/2000/svg"><path d="M1 13l5-6-5-6" stroke="currentColor" stroke-width="2" stroke-linecap="round"/></svg><svg fill="none" viewBox="0 0 17 20" id="icon-basket" xmlns="http://www.w3.org/2000/svg"><path d="M11.36 2.471A2.9 2.9 0 008.5 0c-.92 0-1.792.442-2.335 1.183a.338.338 0 00.074.474.34.34 0 00.475-.074A2.222 2.222 0 018.5.678c1.093 0 2.033.812 2.187 1.889a.34.34 0 00.674-.096zM16.271 6.266l-1.02-1.695a.34.34 0 00-.291-.164h-.978a.34.34 0 100 .678h.785L15.38 6.1H1.62l.612-1.016h.36a.34.34 0 100-.678H2.04a.34.34 0 00-.292.164L.728 6.266a.338.338 0 00.292.514h14.96a.34.34 0 00.291-.514z" fill="currentColor"/><path d="M14.576 3.14a.34.34 0 00-.211-.15L9.73 1.907a.342.342 0 00-.408.253l-.35 1.49a.34.34 0 00.662.154l.272-1.16 3.973.927-.624 2.661a.339.339 0 00.331.416.34.34 0 00.33-.261l.702-2.992a.337.337 0 00-.042-.255zM8.68 3.942L8.37 1.33a.338.338 0 00-.378-.297l-5.686.67a.34.34 0 00-.298.376l.516 4.357a.34.34 0 00.676-.08l-.477-4.02 5.012-.59.27 2.275a.34.34 0 00.675-.08z" fill="currentColor"/><path d="M11.368 6.312l-.674-2.798a.34.34 0 00-.41-.25L4.806 4.577a.339.339 0 00-.25.409l.337 1.398a.34.34 0 00.66-.158l-.257-1.07 4.816-1.154.595 2.469a.34.34 0 00.661-.16z" fill="currentColor"/><path d="M16.32 6.423a.34.34 0 00-.34-.321H1.02a.34.34 0 00-.34.321L0 19.643A.338.338 0 00.34 20h16.32a.342.342 0 00.34-.356l-.68-13.22zM.698 19.322L1.343 6.78h14.314l.645 12.542H.698z" fill="currentColor"/><path d="M11.05 7.458a1.02 1.02 0 00-1.02 1.017 1.02 1.02 0 002.04 0 1.02 1.02 0 00-1.02-1.017zm0 1.356a.34.34 0 110-.68.34.34 0 010 .68zM5.95 7.458a1.02 1.02 0 00-1.02 1.017 1.02 1.02 0 002.04 0 1.02 1.02 0 00-1.02-1.017zm0 1.356a.34.34 0 01-.34-.34.34.34 0 01.68 0 .34.34 0 01-.34.34z" fill="currentColor"/><path d="M11.05 8.475h-.026a.34.34 0 00-.314.47v1.733A2.21 2.21 0 018.5 12.88a2.21 2.21 0 01-2.21-2.203V8.814a.34.34 0 00-.68 0v1.864a2.889 2.889 0 002.89 2.881 2.889 2.889 0 002.89-2.881V8.814a.34.34 0 00-.34-.34z" fill="currentColor"/></svg><svg fill="none" viewBox="0 0 18 11" id="icon-caret" xmlns="http://www.w3.org/2000/svg"><path d="M1 1l8 8 8-8" stroke="#1D3C34" stroke-width="2" stroke-linecap="round"/></svg><svg fill="none" viewBox="0 0 18 18" id="icon-close" xmlns="http://www.w3.org/2000/svg"><path fill-rule="evenodd" clip-rule="evenodd" d="M10.587 9.065l6.829 6.865c.438.44.438 1.155 0 1.595-.438.44-1.149.44-1.587 0L9 10.66l-6.829 6.865c-.438.44-1.149.44-1.587 0a1.132 1.132 0 010-1.595l6.83-6.865L.49 2.105A1.132 1.132 0 01.49.51a1.118 1.118 0 011.587 0L9 7.47 15.923.51a1.118 1.118 0 011.587 0c.438.44.438 1.155 0 1.595l-6.923 6.96z" fill="currentColor"/></svg><svg fill="none" viewBox="0 0 15 15" id="icon-info" xmlns="http://www.w3.org/2000/svg"><path d="M7.5 10V7.5m0-2.5h.006m6.244 2.5a6.25 6.25 0 11-12.5 0 6.25 6.25 0 0112.5 0z" stroke="#4F6B57" stroke-linecap="round" stroke-linejoin="round"/></svg><svg fill="none" viewBox="0 0 20 18" id="icon-like" xmlns="http://www.w3.org/2000/svg"><path d="M19.967 5.367C19.675 2.257 17.4 0 14.554 0a5.416 5.416 0 00-4.61 2.571C8.978.968 7.312 0 5.447 0 2.6 0 .325 2.257.033 5.367c-.023.137-.117.86.17 2.04.415 1.7 1.373 3.247 2.77 4.472L9.94 18l7.087-6.12c1.397-1.226 2.355-2.772 2.77-4.473.287-1.18.192-1.902.17-2.04zm-.92 1.87c-.378 1.552-1.255 2.968-2.534 4.09l-6.568 5.671-6.456-5.67C2.21 10.204 1.331 8.789.952 7.236.68 6.12.792 5.49.792 5.486l.006-.038C1.048 2.723 3.002.745 5.446.745c1.802 0 3.39 1.072 4.143 2.798l.354.812.354-.812A4.649 4.649 0 0114.555.745c2.442 0 4.397 1.978 4.652 4.739 0 .006.113.636-.16 1.752z" fill="currentColor"/></svg><svg fill="none" viewBox="0 0 19 13" id="icon-mark" xmlns="http://www.w3.org/2000/svg"><path d="M1 6l6 6L18 1" stroke="#fff" stroke-width="2" stroke-linecap="round" stroke-linejoin="round"/></svg><svg fill="none" viewBox="0 0 16 2" id="icon-minus" xmlns="http://www.w3.org/2000/svg"><path d="M7.228 1.555V0h1.544v1.555H7.228zM0 1.555V0h16v1.555H0z" fill="currentColor"/></svg><svg version="1.0" viewBox="0 0 512 512" id="icon-picture-plug" xmlns="http://www.w3.org/2000/svg"><g fill="currentColor"><path d="M46 234.7c0 179-.2 170.6 5.7 181.6 4.3 7.8 12.2 15.1 21 19.4l7.8 3.8h351.1l7.8-3.8c8.8-4.4 16.6-11.7 20.9-19.4 5.9-11 5.7-2.6 5.7-181.6V71H46v163.7zm410-55.5c0 94.8 0 97.2-1.9 95.3-1-1.1-11.4-13.2-23.1-26.9l-21.3-24.8-38.7 38.7c-21.3 21.3-39.2 38.5-39.6 38.2-.5-.3-29-35-63.4-77l-62.5-76.6-74 74C90.8 260.7 57.2 294 56.7 294c-.4 0-.7-47.7-.7-106V82h400v97.2zM314 295c59.5 72.9 108.7 133.1 109.3 133.8.8 1-32.4 1.2-169.4 1l-170.4-.3-6.7-3.3c-8.1-4-14.8-11-18-19-2.3-5.6-2.3-6.3-2.6-51.6l-.3-46 74.3-74.3c40.8-40.8 74.5-73.9 74.9-73.5.3.4 49.3 60.3 108.9 133.2zm119.4-29l22.7 26.4-.3 54.6c-.3 54.3-.3 54.5-2.6 60.2-2.6 6.5-9.4 14.5-14.6 17.3-3.6 1.9-3.6 1.9-5.5 0-1.4-1.5-88.3-107.9-93.4-114.3-.8-1 7.3-9.7 34.3-36.7 19.5-19.5 35.7-35.1 36.1-34.7.4.4 10.9 12.6 23.3 27.2z"/><path d="M334 124.6c-21.1 5.6-35.1 27.6-31.1 48.9 5.2 28.6 35.4 44.3 61.4 32 26.3-12.4 32.9-47.4 12.9-68.7-11-11.7-27.5-16.4-43.2-12.2zm25.5 11.8c6.8 3.1 13 9.3 16.3 16.5 3.9 8.2 3.8 19.3-.1 27.3-3.6 7.4-11.9 15-18.9 17.4-26.2 9-51.4-16.2-42.5-42.3 2-5.8 8.7-13.9 14.4-17.5 8.7-5.3 21-5.9 30.8-1.4z"/></g></svg><svg fill="none" viewBox="0 0 24 25" id="icon-plus" xmlns="http://www.w3.org/2000/svg"><path fill-rule="evenodd" clip-rule="evenodd" d="M13.056 14.16l-.026 9.683a1.132 1.132 0 01-1.128 1.128 1.118 1.118 0 01-1.122-1.122l.026-9.684-9.684.026A1.118 1.118 0 010 13.069a1.132 1.132 0 011.128-1.128l9.684-.026.026-9.816A1.132 1.132 0 0111.966.97c.621-.002 1.123.5 1.122 1.122l-.026 9.816 9.816-.026c.621-.001 1.124.5 1.122 1.122a1.132 1.132 0 01-1.128 1.128l-9.816.026z" fill="currentColor"/></svg><svg fill="none" viewBox="0 0 12 13" id="icon-shop" xmlns="http://www.w3.org/2000/svg"><path d="M11.856 5.874L6.385.65a.561.561 0 00-.766 0L.147 5.874a.51.51 0 000 .713.558.558 0 00.361.165h.668v5.225c0 .139.058.272.16.37a.56.56 0 00.387.153h3.064V8.994c0-.139.058-.272.16-.37a.56.56 0 01.387-.153h1.324a.56.56 0 01.387.153c.103.098.16.231.16.37v3.5h3.064a.56.56 0 00.387-.152.51.51 0 00.16-.37V6.747h.695a.556.556 0 00.35-.172.51.51 0 00.139-.351.51.51 0 00-.144-.35z" fill="currentColor"/></svg><svg fill="none" viewBox="0 0 26 27" id="icon-star" xmlns="http://www.w3.org/2000/svg"><path d="M13.55 21.837l6.3 4c.813.513 1.813-.25 1.575-1.187L19.6 17.475a1.087 1.087 0 01.362-1.1l5.65-4.713c.738-.612.363-1.85-.6-1.912l-7.375-.475a1.037 1.037 0 01-.912-.675l-2.75-6.925a1.038 1.038 0 00-1.95 0L9.275 8.6a1.038 1.038 0 01-.913.675L.987 9.75c-.962.063-1.337 1.3-.6 1.912l5.65 4.713a1.087 1.087 0 01.363 1.1l-1.688 6.65c-.287 1.125.913 2.038 1.875 1.425l5.863-3.713a1.025 1.025 0 011.1 0z" fill="currentColor"/></svg><svg fill="none" viewBox="0 0 26 27" id="icon-star-active" xmlns="http://www.w3.org/2000/svg"><path d="M13.55 21.837l6.3 4c.813.513 1.813-.25 1.575-1.187L19.6 17.475a1.087 1.087 0 01.362-1.1l5.65-4.713c.738-.612.363-1.85-.6-1.912l-7.375-.475a1.037 1.037 0 01-.912-.675l-2.75-6.925a1.038 1.038 0 00-1.95 0L9.275 8.6a1.038 1.038 0 01-.913.675L.987 9.75c-.962.063-1.337 1.3-.6 1.912l5.65 4.713a1.087 1.087 0 01.363 1.1l-1.688 6.65c-.287 1.125.913 2.038 1.875 1.425l5.863-3.713a1.025 1.025 0 011.1 0z" fill="#E0CE2C"/></svg></svg>